<?xml version="1.0" encoding="UTF-8" standalone="no"?>
<!DOCTYPE svg PUBLIC "-//W3C//DTD SVG 1.1//EN"
 "http://www.w3.org/Graphics/SVG/1.1/DTD/svg11.dtd">
<!-- Generated by graphviz version 2.40.1 (20161225.0304)
 -->
<!-- Title: asd Pages: 1 -->
<svg width="390pt" height="261pt"
 viewBox="0.00 0.00 390.00 261.00" xmlns="http://www.w3.org/2000/svg" xmlns:xlink="http://www.w3.org/1999/xlink">
<g id="graph0" class="graph" transform="scale(1 1) rotate(0) translate(4 257)">
<title>asd</title>
<polygon fill="#f5deb3" stroke="transparent" points="-4,4 -4,-257 386,-257 386,4 -4,4"/>
<g id="clust1" class="cluster">
<title>cluster_2</title>
<polygon fill="#f5deb3" stroke="#000000" points="8,-8 8,-245 374,-245 374,-8 8,-8"/>
<text text-anchor="middle" x="191" y="-229.8" font-family="Times,serif" font-size="14.00" fill="#000000">数据处理流程</text>
</g>
<!-- 获取数据 -->
<g id="node1" class="node">
<title>获取数据</title>
<text text-anchor="middle" x="60" y="-30.3" font-family="Times,serif" font-size="14.00" fill="#000000">获取数据</text>
</g>
<!-- 清洗数据 -->
<g id="node2" class="node">
<title>清洗数据</title>
<text text-anchor="middle" x="60" y="-84.3" font-family="Times,serif" font-size="14.00" fill="#000000">清洗数据</text>
</g>
<!-- 获取数据&#45;&gt;清洗数据 -->
<g id="edge1" class="edge">
<title>获取数据&#45;&gt;清洗数据</title>
<path fill="none" stroke="#000000" d="M60,-52.1406C60,-54.6226 60,-57.1046 60,-59.5865"/>
<polygon fill="#000000" stroke="#000000" points="56.5001,-59.7901 60,-69.7902 63.5001,-59.7902 56.5001,-59.7901"/>
</g>
<!-- 下载 -->
<g id="node5" class="node">
<title>下载</title>
<text text-anchor="middle" x="191" y="-30.3" font-family="Times,serif" font-size="14.00" fill="#000000">下载</text>
</g>
<!-- 获取数据&#45;&gt;下载 -->
<g id="edge7" class="edge">
<title>获取数据&#45;&gt;下载</title>
<path fill="none" stroke="#000000" d="M97.1889,-34C114.7287,-34 135.6224,-34 153.2347,-34"/>
<polygon fill="#000000" stroke="#000000" points="153.7175,-37.5001 163.7175,-34 153.7174,-30.5001 153.7175,-37.5001"/>
</g>
<!-- 浏览数据 -->
<g id="node3" class="node">
<title>浏览数据</title>
<text text-anchor="middle" x="60" y="-138.3" font-family="Times,serif" font-size="14.00" fill="#000000">浏览数据</text>
</g>
<!-- 清洗数据&#45;&gt;浏览数据 -->
<g id="edge2" class="edge">
<title>清洗数据&#45;&gt;浏览数据</title>
<path fill="none" stroke="#000000" d="M60,-106.1406C60,-108.6226 60,-111.1046 60,-113.5865"/>
<polygon fill="#000000" stroke="#000000" points="56.5001,-113.7901 60,-123.7902 63.5001,-113.7902 56.5001,-113.7901"/>
</g>
<!-- 去冗余 -->
<g id="node6" class="node">
<title>去冗余</title>
<text text-anchor="middle" x="191" y="-84.3" font-family="Times,serif" font-size="14.00" fill="#000000">去冗余</text>
</g>
<!-- 清洗数据&#45;&gt;去冗余 -->
<g id="edge9" class="edge">
<title>清洗数据&#45;&gt;去冗余</title>
<path fill="none" stroke="#000000" d="M97.1889,-88C113.977,-88 133.8377,-88 150.9527,-88"/>
<polygon fill="#000000" stroke="#000000" points="151.2024,-91.5001 161.2024,-88 151.2024,-84.5001 151.2024,-91.5001"/>
</g>
<!-- 数据模型化 -->
<g id="node4" class="node">
<title>数据模型化</title>
<text text-anchor="middle" x="60" y="-192.3" font-family="Times,serif" font-size="14.00" fill="#000000">数据模型化</text>
</g>
<!-- 浏览数据&#45;&gt;数据模型化 -->
<g id="edge3" class="edge">
<title>浏览数据&#45;&gt;数据模型化</title>
<path fill="none" stroke="#000000" d="M60,-160.1406C60,-162.6226 60,-165.1046 60,-167.5865"/>
<polygon fill="#000000" stroke="#000000" points="56.5001,-167.7901 60,-177.7902 63.5001,-167.7902 56.5001,-167.7901"/>
</g>
<!-- 检查熟悉数据 -->
<g id="node7" class="node">
<title>检查熟悉数据</title>
<text text-anchor="middle" x="191" y="-138.3" font-family="Times,serif" font-size="14.00" fill="#000000">检查熟悉数据</text>
</g>
<!-- 浏览数据&#45;&gt;检查熟悉数据 -->
<g id="edge11" class="edge">
<title>浏览数据&#45;&gt;检查熟悉数据</title>
<path fill="none" stroke="#000000" d="M97.1889,-142C107.266,-142 118.4502,-142 129.4831,-142"/>
<polygon fill="#000000" stroke="#000000" points="129.5368,-145.5001 139.5367,-142 129.5367,-138.5001 129.5368,-145.5001"/>
</g>
<!-- 建模 -->
<g id="node8" class="node">
<title>建模</title>
<text text-anchor="middle" x="191" y="-192.3" font-family="Times,serif" font-size="14.00" fill="#000000">建模</text>
</g>
<!-- 数据模型化&#45;&gt;建模 -->
<g id="edge13" class="edge">
<title>数据模型化&#45;&gt;建模</title>
<path fill="none" stroke="#000000" d="M104.3506,-196C120.3929,-196 138.3312,-196 153.7064,-196"/>
<polygon fill="#000000" stroke="#000000" points="153.8866,-199.5001 163.8865,-196 153.8865,-192.5001 153.8866,-199.5001"/>
</g>
<!-- 下载&#45;&gt;去冗余 -->
<g id="edge4" class="edge">
<title>下载&#45;&gt;去冗余</title>
<path fill="none" stroke="#000000" d="M191,-52.1406C191,-54.6226 191,-57.1046 191,-59.5865"/>
<polygon fill="#000000" stroke="#000000" points="187.5001,-59.7901 191,-69.7902 194.5001,-59.7902 187.5001,-59.7901"/>
</g>
<!-- 网络库 -->
<g id="node9" class="node">
<title>网络库</title>
<text text-anchor="middle" x="322" y="-30.3" font-family="Times,serif" font-size="14.00" fill="#000000">网络库</text>
</g>
<!-- 下载&#45;&gt;网络库 -->
<g id="edge8" class="edge">
<title>下载&#45;&gt;网络库</title>
<path fill="none" stroke="#000000" d="M218.1433,-34C236.6073,-34 261.35,-34 282.0533,-34"/>
<polygon fill="#000000" stroke="#000000" points="282.1512,-37.5001 292.1512,-34 282.1511,-30.5001 282.1512,-37.5001"/>
</g>
<!-- 去冗余&#45;&gt;检查熟悉数据 -->
<g id="edge5" class="edge">
<title>去冗余&#45;&gt;检查熟悉数据</title>
<path fill="none" stroke="#000000" d="M191,-106.1406C191,-108.6226 191,-111.1046 191,-113.5865"/>
<polygon fill="#000000" stroke="#000000" points="187.5001,-113.7901 191,-123.7902 194.5001,-113.7902 187.5001,-113.7901"/>
</g>
<!-- 媒体处理库 -->
<g id="node10" class="node">
<title>媒体处理库</title>
<text text-anchor="middle" x="322" y="-84.3" font-family="Times,serif" font-size="14.00" fill="#000000">媒体处理库</text>
</g>
<!-- 去冗余&#45;&gt;媒体处理库 -->
<g id="edge10" class="edge">
<title>去冗余&#45;&gt;媒体处理库</title>
<path fill="none" stroke="#000000" d="M220.7259,-88C234.5971,-88 251.5559,-88 267.5997,-88"/>
<polygon fill="#000000" stroke="#000000" points="267.9689,-91.5001 277.9689,-88 267.9688,-84.5001 267.9689,-91.5001"/>
</g>
<!-- 检查熟悉数据&#45;&gt;建模 -->
<g id="edge6" class="edge">
<title>检查熟悉数据&#45;&gt;建模</title>
<path fill="none" stroke="#000000" d="M191,-160.1406C191,-162.6226 191,-165.1046 191,-167.5865"/>
<polygon fill="#000000" stroke="#000000" points="187.5001,-167.7901 191,-177.7902 194.5001,-167.7902 187.5001,-167.7901"/>
</g>
<!-- 查看器 -->
<g id="node11" class="node">
<title>查看器</title>
<text text-anchor="middle" x="322" y="-138.3" font-family="Times,serif" font-size="14.00" fill="#000000">查看器</text>
</g>
<!-- 检查熟悉数据&#45;&gt;查看器 -->
<g id="edge12" class="edge">
<title>检查熟悉数据&#45;&gt;查看器</title>
<path fill="none" stroke="#000000" d="M242.0231,-142C255.3811,-142 269.5846,-142 282.2579,-142"/>
<polygon fill="#000000" stroke="#000000" points="282.4914,-145.5001 292.4913,-142 282.4913,-138.5001 282.4914,-145.5001"/>
</g>
<!-- 算法库 -->
<g id="node12" class="node">
<title>算法库</title>
<text text-anchor="middle" x="322" y="-192.3" font-family="Times,serif" font-size="14.00" fill="#000000">算法库</text>
</g>
<!-- 建模&#45;&gt;算法库 -->
<g id="edge14" class="edge">
<title>建模&#45;&gt;算法库</title>
<path fill="none" stroke="#000000" d="M218.1433,-196C236.6073,-196 261.35,-196 282.0533,-196"/>
<polygon fill="#000000" stroke="#000000" points="282.1512,-199.5001 292.1512,-196 282.1511,-192.5001 282.1512,-199.5001"/>
</g>
</g>
</svg>
