<?xml version="1.0" encoding="UTF-8" standalone="no"?>
<!DOCTYPE svg PUBLIC "-//W3C//DTD SVG 1.1//EN"
 "http://www.w3.org/Graphics/SVG/1.1/DTD/svg11.dtd">
<!-- Generated by graphviz version 2.40.1 (20161225.0304)
 -->
<!-- Title: asd Pages: 1 -->
<svg width="279pt" height="99pt"
 viewBox="0.00 0.00 279.00 99.00" xmlns="http://www.w3.org/2000/svg" xmlns:xlink="http://www.w3.org/1999/xlink">
<g id="graph0" class="graph" transform="scale(1 1) rotate(0) translate(4 95)">
<title>asd</title>
<polygon fill="#f5deb3" stroke="transparent" points="-4,4 -4,-95 275,-95 275,4 -4,4"/>
<g id="clust1" class="cluster">
<title>cluster_2</title>
<polygon fill="#f5deb3" stroke="#000000" points="8,-8 8,-83 263,-83 263,-8 8,-8"/>
<text text-anchor="middle" x="135.5" y="-67.8" font-family="Times,serif" font-size="14.00" fill="#000000">机器学习建议</text>
</g>
<!-- 耐心 -->
<g id="node1" class="node">
<title>耐心</title>
<text text-anchor="middle" x="43" y="-30.3" font-family="Times,serif" font-size="14.00" fill="#000000">耐心</text>
</g>
<!-- 创造性 -->
<g id="node2" class="node">
<title>创造性</title>
<text text-anchor="middle" x="135.5" y="-30.3" font-family="Times,serif" font-size="14.00" fill="#000000">创造性</text>
</g>
<!-- 耐心&#45;&gt;创造性 -->
<g id="edge1" class="edge">
<title>耐心&#45;&gt;创造性</title>
<path fill="none" stroke="#000000" d="M70.2528,-34C78.209,-34 87.0731,-34 95.639,-34"/>
<polygon fill="#000000" stroke="#000000" points="95.8587,-37.5001 105.8587,-34 95.8587,-30.5001 95.8587,-37.5001"/>
</g>
<!-- 实践 -->
<g id="node3" class="node">
<title>实践</title>
<text text-anchor="middle" x="228" y="-30.3" font-family="Times,serif" font-size="14.00" fill="#000000">实践</text>
</g>
<!-- 创造性&#45;&gt;实践 -->
<g id="edge2" class="edge">
<title>创造性&#45;&gt;实践</title>
<path fill="none" stroke="#000000" d="M165.0219,-34C173.2163,-34 182.2204,-34 190.7932,-34"/>
<polygon fill="#000000" stroke="#000000" points="190.9528,-37.5001 200.9527,-34 190.9527,-30.5001 190.9528,-37.5001"/>
</g>
</g>
</svg>
