<?xml version="1.0" encoding="UTF-8" standalone="no"?>
<!DOCTYPE svg PUBLIC "-//W3C//DTD SVG 1.1//EN"
 "http://www.w3.org/Graphics/SVG/1.1/DTD/svg11.dtd">
<!-- Generated by graphviz version 2.40.1 (20161225.0304)
 -->
<!-- Title: asd Pages: 1 -->
<svg width="490pt" height="315pt"
 viewBox="0.00 0.00 490.00 315.00" xmlns="http://www.w3.org/2000/svg" xmlns:xlink="http://www.w3.org/1999/xlink">
<g id="graph0" class="graph" transform="scale(1 1) rotate(0) translate(4 311)">
<title>asd</title>
<polygon fill="#f5deb3" stroke="transparent" points="-4,4 -4,-311 486,-311 486,4 -4,4"/>
<text text-anchor="middle" x="241" y="-7.8" font-family="Times,serif" font-size="14.00" fill="#000000">构建模型</text>
<g id="clust1" class="cluster">
<title>cluster_2</title>
<polygon fill="#f5deb3" stroke="#000000" points="8,-31 8,-299 474,-299 474,-31 8,-31"/>
</g>
<!-- 设计模型 -->
<g id="node1" class="node">
<title>设计模型</title>
<text text-anchor="middle" x="57" y="-197.3" font-family="Times,serif" font-size="14.00" fill="#000000">设计模型</text>
</g>
<!-- 代码化模型 -->
<g id="node2" class="node">
<title>代码化模型</title>
<text text-anchor="middle" x="159" y="-197.3" font-family="Times,serif" font-size="14.00" fill="#000000">代码化模型</text>
</g>
<!-- 设计模型&#45;&gt;代码化模型 -->
<g id="edge1" class="edge">
<title>设计模型&#45;&gt;代码化模型</title>
<path fill="none" stroke="#000000" d="M94.0547,-201C97.6302,-201 101.2056,-201 104.7811,-201"/>
<polygon fill="#000000" stroke="#000000" points="104.8575,-204.5001 114.8575,-201 104.8574,-197.5001 104.8575,-204.5001"/>
</g>
<!-- 格式化数据 -->
<g id="node3" class="node">
<title>格式化数据</title>
<text text-anchor="middle" x="278" y="-197.3" font-family="Times,serif" font-size="14.00" fill="#000000">格式化数据</text>
</g>
<!-- 代码化模型&#45;&gt;格式化数据 -->
<g id="edge2" class="edge">
<title>代码化模型&#45;&gt;格式化数据</title>
<path fill="none" stroke="#000000" d="M203.1602,-201C210.0348,-201 216.9094,-201 223.7841,-201"/>
<polygon fill="#000000" stroke="#000000" points="223.8562,-204.5001 233.8562,-201 223.8562,-197.5001 223.8562,-204.5001"/>
</g>
<!-- 模型debug -->
<g id="node4" class="node">
<title>模型debug</title>
<text text-anchor="middle" x="379" y="-197.3" font-family="Times,serif" font-size="14.00" fill="#000000">模型debug</text>
</g>
<!-- 格式化数据&#45;&gt;模型debug -->
<g id="edge3" class="edge">
<title>格式化数据&#45;&gt;模型debug</title>
<path fill="none" stroke="#000000" d="M322.1875,-201C324.6841,-201 327.1808,-201 329.6774,-201"/>
<polygon fill="#000000" stroke="#000000" points="329.9414,-204.5001 339.9414,-201 329.9414,-197.5001 329.9414,-204.5001"/>
</g>
<!-- 模型评测 -->
<g id="node5" class="node">
<title>模型评测</title>
<text text-anchor="middle" x="118" y="-125.3" font-family="Times,serif" font-size="14.00" fill="#000000">模型评测</text>
</g>
<!-- 模型debug&#45;&gt;模型评测 -->
<g id="edge4" class="edge">
<title>模型debug&#45;&gt;模型评测</title>
<path fill="none" stroke="#000000" d="M339.8655,-185.7912C336.8824,-184.7958 333.9035,-183.8524 331,-183 261.1353,-162.49 238.5448,-168.3546 164.9595,-147.0355"/>
<polygon fill="#000000" stroke="#000000" points="165.8129,-143.6379 155.2303,-144.1466 163.8203,-150.3483 165.8129,-143.6379"/>
</g>
<!-- 数据可视化 -->
<g id="node6" class="node">
<title>数据可视化</title>
<text text-anchor="middle" x="217" y="-125.3" font-family="Times,serif" font-size="14.00" fill="#000000">数据可视化</text>
</g>
<!-- 模型评测&#45;&gt;数据可视化 -->
<g id="edge5" class="edge">
<title>模型评测&#45;&gt;数据可视化</title>
<path fill="none" stroke="#000000" d="M155.125,-129C157.5722,-129 160.0194,-129 162.4666,-129"/>
<polygon fill="#000000" stroke="#000000" points="162.5274,-132.5001 172.5273,-129 162.5273,-125.5001 162.5274,-132.5001"/>
</g>
<!-- 英文 -->
<g id="node15" class="node">
<title>英文</title>
<text text-anchor="middle" x="118" y="-53.3" font-family="Times,serif" font-size="14.00" fill="#000000">英文</text>
</g>
<!-- 模型评测&#45;&gt;英文 -->
<g id="edge14" class="edge">
<title>模型评测&#45;&gt;英文</title>
<path fill="none" stroke="#000000" d="M118,-110.8314C118,-103.131 118,-93.9743 118,-85.4166"/>
<polygon fill="#000000" stroke="#000000" points="121.5001,-85.4132 118,-75.4133 114.5001,-85.4133 121.5001,-85.4132"/>
</g>
<!-- 模型文档化 -->
<g id="node7" class="node">
<title>模型文档化</title>
<text text-anchor="middle" x="323" y="-125.3" font-family="Times,serif" font-size="14.00" fill="#000000">模型文档化</text>
</g>
<!-- 数据可视化&#45;&gt;模型文档化 -->
<g id="edge6" class="edge">
<title>数据可视化&#45;&gt;模型文档化</title>
<path fill="none" stroke="#000000" d="M261.3047,-129C263.7448,-129 266.1849,-129 268.625,-129"/>
<polygon fill="#000000" stroke="#000000" points="268.6565,-132.5001 278.6565,-129 268.6565,-125.5001 268.6565,-132.5001"/>
</g>
<!-- matplotlib -->
<g id="node11" class="node">
<title>matplotlib</title>
<text text-anchor="middle" x="212" y="-53.3" font-family="Times,serif" font-size="14.00" fill="#000000">matplotlib</text>
</g>
<!-- 数据可视化&#45;&gt;matplotlib -->
<g id="edge10" class="edge">
<title>数据可视化&#45;&gt;matplotlib</title>
<path fill="none" stroke="#000000" d="M215.7383,-110.8314C215.2035,-103.131 214.5677,-93.9743 213.9734,-85.4166"/>
<polygon fill="#000000" stroke="#000000" points="217.4632,-85.1467 213.2787,-75.4133 210.48,-85.6317 217.4632,-85.1467"/>
</g>
<!-- 模型归档 -->
<g id="node8" class="node">
<title>模型归档</title>
<text text-anchor="middle" x="424" y="-125.3" font-family="Times,serif" font-size="14.00" fill="#000000">模型归档</text>
</g>
<!-- 模型文档化&#45;&gt;模型归档 -->
<g id="edge7" class="edge">
<title>模型文档化&#45;&gt;模型归档</title>
<path fill="none" stroke="#000000" d="M367.1875,-129C370.3407,-129 373.4938,-129 376.647,-129"/>
<polygon fill="#000000" stroke="#000000" points="376.7168,-132.5001 386.7168,-129 376.7168,-125.5001 376.7168,-132.5001"/>
</g>
<!-- markdown,marp -->
<g id="node10" class="node">
<title>markdown,marp</title>
<text text-anchor="middle" x="320" y="-53.3" font-family="Times,serif" font-size="14.00" fill="#000000">markdown,marp</text>
</g>
<!-- 模型文档化&#45;&gt;markdown,marp -->
<g id="edge9" class="edge">
<title>模型文档化&#45;&gt;markdown,marp</title>
<path fill="none" stroke="#000000" d="M322.243,-110.8314C321.9221,-103.131 321.5406,-93.9743 321.184,-85.4166"/>
<polygon fill="#000000" stroke="#000000" points="324.6806,-85.2589 320.7672,-75.4133 317.6867,-85.5503 324.6806,-85.2589"/>
</g>
<!-- 注意备份 -->
<g id="node9" class="node">
<title>注意备份</title>
<text text-anchor="middle" x="429" y="-53.3" font-family="Times,serif" font-size="14.00" fill="#000000">注意备份</text>
</g>
<!-- 模型归档&#45;&gt;注意备份 -->
<g id="edge8" class="edge">
<title>模型归档&#45;&gt;注意备份</title>
<path fill="none" stroke="#000000" d="M425.2617,-110.8314C425.7965,-103.131 426.4323,-93.9743 427.0266,-85.4166"/>
<polygon fill="#000000" stroke="#000000" points="430.52,-85.6317 427.7213,-75.4133 423.5368,-85.1467 430.52,-85.6317"/>
</g>
<!-- 语法,逻辑... -->
<g id="node12" class="node">
<title>语法,逻辑...</title>
<text text-anchor="middle" x="422" y="-269.3" font-family="Times,serif" font-size="14.00" fill="#000000">语法,逻辑...</text>
</g>
<!-- 语法,逻辑...&#45;&gt;模型debug -->
<g id="edge11" class="edge">
<title>语法,逻辑...&#45;&gt;模型debug</title>
<path fill="none" stroke="#000000" d="M411.1493,-254.8314C406.2977,-246.7079 400.4783,-236.9637 395.132,-228.0118"/>
<polygon fill="#000000" stroke="#000000" points="398.1292,-226.2041 389.9968,-219.4133 392.1194,-229.7933 398.1292,-226.2041"/>
</g>
<!-- 序列化,划分数据集 -->
<g id="node13" class="node">
<title>序列化,划分数据集</title>
<text text-anchor="middle" x="292" y="-269.3" font-family="Times,serif" font-size="14.00" fill="#000000">序列化,划分数据集</text>
</g>
<!-- 序列化,划分数据集&#45;&gt;格式化数据 -->
<g id="edge12" class="edge">
<title>序列化,划分数据集&#45;&gt;格式化数据</title>
<path fill="none" stroke="#000000" d="M288.4672,-254.8314C286.9699,-247.131 285.1895,-237.9743 283.5255,-229.4166"/>
<polygon fill="#000000" stroke="#000000" points="286.9248,-228.5614 281.5804,-219.4133 280.0535,-229.8975 286.9248,-228.5614"/>
</g>
<!-- C++,python... -->
<g id="node14" class="node">
<title>C++,python...</title>
<text text-anchor="middle" x="159" y="-269.3" font-family="Times,serif" font-size="14.00" fill="#000000">C++,python...</text>
</g>
<!-- C++,python...&#45;&gt;代码化模型 -->
<g id="edge13" class="edge">
<title>C++,python...&#45;&gt;代码化模型</title>
<path fill="none" stroke="#000000" d="M159,-254.8314C159,-247.131 159,-237.9743 159,-229.4166"/>
<polygon fill="#000000" stroke="#000000" points="162.5001,-229.4132 159,-219.4133 155.5001,-229.4133 162.5001,-229.4132"/>
</g>
<!-- 数学,算法 -->
<g id="node16" class="node">
<title>数学,算法</title>
<text text-anchor="middle" x="55" y="-269.3" font-family="Times,serif" font-size="14.00" fill="#000000">数学,算法</text>
</g>
<!-- 数学,算法&#45;&gt;设计模型 -->
<g id="edge15" class="edge">
<title>数学,算法&#45;&gt;设计模型</title>
<path fill="none" stroke="#000000" d="M55.5047,-254.8314C55.7186,-247.131 55.9729,-237.9743 56.2106,-229.4166"/>
<polygon fill="#000000" stroke="#000000" points="59.7094,-229.5066 56.4885,-219.4133 52.7121,-229.3122 59.7094,-229.5066"/>
</g>
</g>
</svg>
