<?xml version="1.0" encoding="UTF-8" standalone="no"?>
<!DOCTYPE svg PUBLIC "-//W3C//DTD SVG 1.1//EN"
 "http://www.w3.org/Graphics/SVG/1.1/DTD/svg11.dtd">
<!-- Generated by graphviz version 2.40.1 (20161225.0304)
 -->
<!-- Title: asd Pages: 1 -->
<svg width="332pt" height="245pt"
 viewBox="0.00 0.00 332.00 245.00" xmlns="http://www.w3.org/2000/svg" xmlns:xlink="http://www.w3.org/1999/xlink">
<g id="graph0" class="graph" transform="scale(1 1) rotate(0) translate(4 241)">
<title>asd</title>
<polygon fill="#fffafa" stroke="transparent" points="-4,4 -4,-241 328,-241 328,4 -4,4"/>
<text text-anchor="middle" x="162" y="-7.8" font-family="Times,serif" font-size="14.00" fill="#000000">拉链法hash</text>
<!-- struct1 -->
<g id="node1" class="node">
<title>struct1</title>
<polygon fill="none" stroke="#000000" points="0,-69.5 0,-184.5 54,-184.5 54,-69.5 0,-69.5"/>
<text text-anchor="middle" x="27" y="-169.3" font-family="Times,serif" font-size="14.00" fill="#000000">key</text>
<polyline fill="none" stroke="#000000" points="0,-161.5 54,-161.5 "/>
<text text-anchor="middle" x="27" y="-146.3" font-family="Times,serif" font-size="14.00" fill="#000000">key1</text>
<polyline fill="none" stroke="#000000" points="0,-138.5 54,-138.5 "/>
<text text-anchor="middle" x="27" y="-123.3" font-family="Times,serif" font-size="14.00" fill="#000000">key4</text>
<polyline fill="none" stroke="#000000" points="0,-115.5 54,-115.5 "/>
<text text-anchor="middle" x="27" y="-100.3" font-family="Times,serif" font-size="14.00" fill="#000000">key5</text>
<polyline fill="none" stroke="#000000" points="0,-92.5 54,-92.5 "/>
<text text-anchor="middle" x="27" y="-77.3" font-family="Times,serif" font-size="14.00" fill="#000000">...</text>
</g>
<!-- struct2 -->
<g id="node2" class="node">
<title>struct2</title>
<polygon fill="none" stroke="#000000" points="90,-23.5 90,-230.5 144,-230.5 144,-23.5 90,-23.5"/>
<text text-anchor="middle" x="117" y="-215.3" font-family="Times,serif" font-size="14.00" fill="#000000">val</text>
<polyline fill="none" stroke="#000000" points="90,-207.5 144,-207.5 "/>
<text text-anchor="middle" x="117" y="-192.3" font-family="Times,serif" font-size="14.00" fill="#000000">o</text>
<polyline fill="none" stroke="#000000" points="90,-184.5 144,-184.5 "/>
<text text-anchor="middle" x="117" y="-169.3" font-family="Times,serif" font-size="14.00" fill="#000000">o</text>
<polyline fill="none" stroke="#000000" points="90,-161.5 144,-161.5 "/>
<text text-anchor="middle" x="117" y="-146.3" font-family="Times,serif" font-size="14.00" fill="#000000">val</text>
<polyline fill="none" stroke="#000000" points="90,-138.5 144,-138.5 "/>
<text text-anchor="middle" x="117" y="-123.3" font-family="Times,serif" font-size="14.00" fill="#000000">o</text>
<polyline fill="none" stroke="#000000" points="90,-115.5 144,-115.5 "/>
<text text-anchor="middle" x="117" y="-100.3" font-family="Times,serif" font-size="14.00" fill="#000000">o</text>
<polyline fill="none" stroke="#000000" points="90,-92.5 144,-92.5 "/>
<text text-anchor="middle" x="117" y="-77.3" font-family="Times,serif" font-size="14.00" fill="#000000">val</text>
<polyline fill="none" stroke="#000000" points="90,-69.5 144,-69.5 "/>
<text text-anchor="middle" x="117" y="-54.3" font-family="Times,serif" font-size="14.00" fill="#000000">o</text>
<polyline fill="none" stroke="#000000" points="90,-46.5 144,-46.5 "/>
<text text-anchor="middle" x="117" y="-31.3" font-family="Times,serif" font-size="14.00" fill="#000000">...</text>
</g>
<!-- struct1&#45;&gt;struct2 -->
<g id="edge1" class="edge">
<title>struct1:k1&#45;&gt;struct2:v1</title>
<path fill="none" stroke="#000000" d="M54,-150C84.266,-150 62.6463,-202.8281 79.9408,-216.0352"/>
<polygon fill="#000000" stroke="#000000" points="79.4184,-219.53 90,-219 81.3975,-212.8156 79.4184,-219.53"/>
</g>
<!-- struct1&#45;&gt;struct2 -->
<g id="edge3" class="edge">
<title>struct1:k2&#45;&gt;struct2:v2</title>
<path fill="none" stroke="#000000" d="M54,-173C68.8333,-173 70.8737,-158.9619 80.1101,-152.8203"/>
<polygon fill="#000000" stroke="#000000" points="81.3432,-156.1082 90,-150 79.4235,-149.3766 81.3432,-156.1082"/>
</g>
<!-- struct1&#45;&gt;struct2 -->
<g id="edge6" class="edge">
<title>struct1:k3&#45;&gt;struct2:v2</title>
<path fill="none" stroke="#000000" d="M54,-127C68.8333,-127 70.8737,-141.0381 80.1101,-147.1797"/>
<polygon fill="#000000" stroke="#000000" points="79.4235,-150.6234 90,-150 81.3432,-143.8918 79.4235,-150.6234"/>
</g>
<!-- struct1&#45;&gt;struct2 -->
<g id="edge7" class="edge">
<title>struct1:k4&#45;&gt;struct2:v3</title>
<path fill="none" stroke="#000000" d="M54,-104C68.8333,-104 70.8737,-89.9619 80.1101,-83.8203"/>
<polygon fill="#000000" stroke="#000000" points="81.3432,-87.1082 90,-81 79.4235,-80.3766 81.3432,-87.1082"/>
</g>
<!-- st6 -->
<g id="node3" class="node">
<title>st6</title>
<polygon fill="none" stroke="#000000" points="234,-237 180,-237 180,-201 234,-201 234,-237"/>
<text text-anchor="middle" x="207" y="-215.3" font-family="Times,serif" font-size="14.00" fill="#000000">v</text>
</g>
<!-- struct2&#45;&gt;st6 -->
<g id="edge2" class="edge">
<title>struct2:v1&#45;&gt;st6</title>
<path fill="none" stroke="#000000" d="M144,-219C152.2288,-219 161.0621,-219 169.434,-219"/>
<polygon fill="#000000" stroke="#000000" points="169.7113,-222.5001 179.7113,-219 169.7112,-215.5001 169.7113,-222.5001"/>
</g>
<!-- st4 -->
<g id="node4" class="node">
<title>st4</title>
<polygon fill="none" stroke="#000000" points="234,-168 180,-168 180,-132 234,-132 234,-168"/>
<text text-anchor="middle" x="207" y="-146.3" font-family="Times,serif" font-size="14.00" fill="#000000">v</text>
</g>
<!-- struct2&#45;&gt;st4 -->
<g id="edge4" class="edge">
<title>struct2:v2&#45;&gt;st4</title>
<path fill="none" stroke="#000000" d="M144,-150C152.2288,-150 161.0621,-150 169.434,-150"/>
<polygon fill="#000000" stroke="#000000" points="169.7113,-153.5001 179.7113,-150 169.7112,-146.5001 169.7113,-153.5001"/>
</g>
<!-- st3 -->
<g id="node6" class="node">
<title>st3</title>
<polygon fill="none" stroke="#000000" points="234,-99 180,-99 180,-63 234,-63 234,-99"/>
<text text-anchor="middle" x="207" y="-77.3" font-family="Times,serif" font-size="14.00" fill="#000000">v</text>
</g>
<!-- struct2&#45;&gt;st3 -->
<g id="edge8" class="edge">
<title>struct2:v3&#45;&gt;st3</title>
<path fill="none" stroke="#000000" d="M144,-81C152.2288,-81 161.0621,-81 169.434,-81"/>
<polygon fill="#000000" stroke="#000000" points="169.7113,-84.5001 179.7113,-81 169.7112,-77.5001 169.7113,-84.5001"/>
</g>
<!-- st5 -->
<g id="node5" class="node">
<title>st5</title>
<polygon fill="none" stroke="#000000" points="324,-168 270,-168 270,-132 324,-132 324,-168"/>
<text text-anchor="middle" x="297" y="-146.3" font-family="Times,serif" font-size="14.00" fill="#000000">v</text>
</g>
<!-- st4&#45;&gt;st5 -->
<g id="edge5" class="edge">
<title>st4&#45;&gt;st5</title>
<path fill="none" stroke="#000000" d="M234.003,-150C242.0277,-150 250.9665,-150 259.5309,-150"/>
<polygon fill="#000000" stroke="#000000" points="259.7051,-153.5001 269.705,-150 259.705,-146.5001 259.7051,-153.5001"/>
</g>
</g>
</svg>
