<?xml version="1.0" encoding="UTF-8" standalone="no"?>
<!DOCTYPE svg PUBLIC "-//W3C//DTD SVG 1.1//EN"
 "http://www.w3.org/Graphics/SVG/1.1/DTD/svg11.dtd">
<!-- Generated by graphviz version 2.40.1 (20161225.0304)
 -->
<!-- Title: asd Pages: 1 -->
<svg width="288pt" height="283pt"
 viewBox="0.00 0.00 288.24 283.00" xmlns="http://www.w3.org/2000/svg" xmlns:xlink="http://www.w3.org/1999/xlink">
<g id="graph0" class="graph" transform="scale(1 1) rotate(0) translate(4 279)">
<title>asd</title>
<polygon fill="#fffafa" stroke="transparent" points="-4,4 -4,-279 284.2416,-279 284.2416,4 -4,4"/>
<text text-anchor="middle" x="140.1208" y="-7.8" font-family="Times,serif" font-size="14.00" fill="#000000">问题分类</text>
<!-- 问题 -->
<g id="node1" class="node">
<title>问题</title>
<ellipse fill="none" stroke="#000000" cx="180.1459" cy="-257" rx="29.4969" ry="18"/>
<text text-anchor="middle" x="180.1459" y="-253.3" font-family="Times,serif" font-size="14.00" fill="#000000">问题</text>
</g>
<!-- 可解 -->
<g id="node2" class="node">
<title>可解</title>
<ellipse fill="none" stroke="#000000" cx="137.1459" cy="-185" rx="29.4969" ry="18"/>
<text text-anchor="middle" x="137.1459" y="-181.3" font-family="Times,serif" font-size="14.00" fill="#000000">可解</text>
</g>
<!-- 问题&#45;&gt;可解 -->
<g id="edge1" class="edge">
<title>问题&#45;&gt;可解</title>
<path fill="none" stroke="#000000" d="M169.9555,-239.937C164.761,-231.2393 158.3353,-220.4799 152.5511,-210.7948"/>
<polygon fill="#000000" stroke="#000000" points="155.3955,-208.7314 147.2632,-201.9405 149.3857,-212.3206 155.3955,-208.7314"/>
</g>
<!-- 不可解 -->
<g id="node3" class="node">
<title>不可解</title>
<ellipse fill="none" stroke="#000000" cx="227.1459" cy="-185" rx="38.1938" ry="18"/>
<text text-anchor="middle" x="227.1459" y="-181.3" font-family="Times,serif" font-size="14.00" fill="#000000">不可解</text>
</g>
<!-- 问题&#45;&gt;不可解 -->
<g id="edge2" class="edge">
<title>问题&#45;&gt;不可解</title>
<path fill="none" stroke="#000000" d="M191.2842,-239.937C196.9373,-231.277 203.9246,-220.5731 210.2254,-210.9207"/>
<polygon fill="#000000" stroke="#000000" points="213.2256,-212.7277 215.761,-202.4407 207.3639,-208.9013 213.2256,-212.7277"/>
</g>
<!-- 易解 -->
<g id="node4" class="node">
<title>易解</title>
<ellipse fill="none" stroke="#000000" cx="54.1459" cy="-113" rx="29.4969" ry="18"/>
<text text-anchor="middle" x="54.1459" y="-109.3" font-family="Times,serif" font-size="14.00" fill="#000000">易解</text>
</g>
<!-- 可解&#45;&gt;易解 -->
<g id="edge3" class="edge">
<title>可解&#45;&gt;易解</title>
<path fill="none" stroke="#000000" d="M119.9483,-170.0816C108.1517,-159.8484 92.3102,-146.1064 79.1267,-134.6701"/>
<polygon fill="#000000" stroke="#000000" points="81.1689,-131.8083 71.3215,-127.8993 76.582,-137.096 81.1689,-131.8083"/>
</g>
<!-- 难解 -->
<g id="node5" class="node">
<title>难解</title>
<ellipse fill="none" stroke="#000000" cx="137.1459" cy="-113" rx="29.4969" ry="18"/>
<text text-anchor="middle" x="137.1459" y="-109.3" font-family="Times,serif" font-size="14.00" fill="#000000">难解</text>
</g>
<!-- 可解&#45;&gt;难解 -->
<g id="edge4" class="edge">
<title>可解&#45;&gt;难解</title>
<path fill="none" stroke="#000000" d="M137.1459,-166.8314C137.1459,-159.131 137.1459,-149.9743 137.1459,-141.4166"/>
<polygon fill="#000000" stroke="#000000" points="140.646,-141.4132 137.1459,-131.4133 133.646,-141.4133 140.646,-141.4132"/>
</g>
<!-- 停机问题 -->
<g id="node9" class="node">
<title>停机问题</title>
<ellipse fill="none" stroke="#000000" cx="232.1459" cy="-113" rx="48.1917" ry="18"/>
<text text-anchor="middle" x="232.1459" y="-109.3" font-family="Times,serif" font-size="14.00" fill="#000000">停机问题</text>
</g>
<!-- 不可解&#45;&gt;停机问题 -->
<g id="edge8" class="edge">
<title>不可解&#45;&gt;停机问题</title>
<path fill="none" stroke="#000000" d="M228.4076,-166.8314C228.9424,-159.131 229.5782,-149.9743 230.1725,-141.4166"/>
<polygon fill="#000000" stroke="#000000" points="233.6659,-141.6317 230.8672,-131.4133 226.6827,-141.1467 233.6659,-141.6317"/>
</g>
<!-- P: O(n^k) -->
<g id="node6" class="node">
<title>P: O(n^k)</title>
<ellipse fill="none" stroke="#000000" cx="46.1459" cy="-41" rx="46.2923" ry="18"/>
<text text-anchor="middle" x="46.1459" y="-37.3" font-family="Times,serif" font-size="14.00" fill="#000000">P: O(n^k)</text>
</g>
<!-- 易解&#45;&gt;P: O(n^k) -->
<g id="edge5" class="edge">
<title>易解&#45;&gt;P: O(n^k)</title>
<path fill="none" stroke="#000000" d="M52.1272,-94.8314C51.2716,-87.131 50.2542,-77.9743 49.3033,-69.4166"/>
<polygon fill="#000000" stroke="#000000" points="52.7748,-68.9656 48.1918,-59.4133 45.8176,-69.7386 52.7748,-68.9656"/>
</g>
<!-- NP -->
<g id="node7" class="node">
<title>NP</title>
<ellipse fill="none" stroke="#000000" cx="137.1459" cy="-41" rx="27" ry="18"/>
<text text-anchor="middle" x="137.1459" y="-37.3" font-family="Times,serif" font-size="14.00" fill="#000000">NP</text>
</g>
<!-- 难解&#45;&gt;NP -->
<g id="edge6" class="edge">
<title>难解&#45;&gt;NP</title>
<path fill="none" stroke="#000000" d="M137.1459,-94.8314C137.1459,-87.131 137.1459,-77.9743 137.1459,-69.4166"/>
<polygon fill="#000000" stroke="#000000" points="140.646,-69.4132 137.1459,-59.4133 133.646,-69.4133 140.646,-69.4132"/>
</g>
<!-- &gt; O(n^k) -->
<g id="node8" class="node">
<title>&gt; O(n^k)</title>
<ellipse fill="none" stroke="#000000" cx="226.1459" cy="-41" rx="44.393" ry="18"/>
<text text-anchor="middle" x="226.1459" y="-37.3" font-family="Times,serif" font-size="14.00" fill="#000000">&gt; O(n^k)</text>
</g>
<!-- 难解&#45;&gt;&gt; O(n^k) -->
<g id="edge7" class="edge">
<title>难解&#45;&gt;&gt; O(n^k)</title>
<path fill="none" stroke="#000000" d="M155.1564,-98.4297C167.4697,-88.4684 184.0375,-75.0652 198.0705,-63.7127"/>
<polygon fill="#000000" stroke="#000000" points="200.4155,-66.3176 205.9887,-57.307 196.0128,-60.8754 200.4155,-66.3176"/>
</g>
</g>
</svg>
