<?xml version="1.0" encoding="UTF-8" standalone="no"?>
<!DOCTYPE svg PUBLIC "-//W3C//DTD SVG 1.1//EN"
 "http://www.w3.org/Graphics/SVG/1.1/DTD/svg11.dtd">
<!-- Generated by graphviz version 2.40.1 (20161225.0304)
 -->
<!-- Title: asd Pages: 1 -->
<svg width="386pt" height="141pt"
 viewBox="0.00 0.00 386.00 141.00" xmlns="http://www.w3.org/2000/svg" xmlns:xlink="http://www.w3.org/1999/xlink">
<g id="graph0" class="graph" transform="scale(1 1) rotate(0) translate(4 137)">
<title>asd</title>
<polygon fill="#fffafa" stroke="transparent" points="-4,4 -4,-137 382,-137 382,4 -4,4"/>
<text text-anchor="middle" x="189" y="-7.8" font-family="Times,serif" font-size="14.00" fill="#000000">开放寻址法hash</text>
<!-- struct1 -->
<g id="node1" class="node">
<title>struct1</title>
<polygon fill="none" stroke="#000000" points="3.5,-96.5 3.5,-132.5 196.5,-132.5 196.5,-96.5 3.5,-96.5"/>
<text text-anchor="middle" x="21.5" y="-110.8" font-family="Times,serif" font-size="14.00" fill="#000000">key</text>
<polyline fill="none" stroke="#000000" points="39.5,-96.5 39.5,-132.5 "/>
<text text-anchor="middle" x="61" y="-110.8" font-family="Times,serif" font-size="14.00" fill="#000000">key1</text>
<polyline fill="none" stroke="#000000" points="82.5,-96.5 82.5,-132.5 "/>
<text text-anchor="middle" x="104" y="-110.8" font-family="Times,serif" font-size="14.00" fill="#000000">key2</text>
<polyline fill="none" stroke="#000000" points="125.5,-96.5 125.5,-132.5 "/>
<text text-anchor="middle" x="147" y="-110.8" font-family="Times,serif" font-size="14.00" fill="#000000">key3</text>
<polyline fill="none" stroke="#000000" points="168.5,-96.5 168.5,-132.5 "/>
<text text-anchor="middle" x="182.5" y="-110.8" font-family="Times,serif" font-size="14.00" fill="#000000">...</text>
</g>
<!-- struct2 -->
<g id="node2" class="node">
<title>struct2</title>
<polygon fill="none" stroke="#000000" points="0,-23.5 0,-59.5 378,-59.5 378,-23.5 0,-23.5"/>
<text text-anchor="middle" x="11.5" y="-37.8" font-family="Times,serif" font-size="14.00" fill="#000000">v</text>
<polyline fill="none" stroke="#000000" points="23,-23.5 23,-59.5 "/>
<text text-anchor="middle" x="34.5" y="-37.8" font-family="Times,serif" font-size="14.00" fill="#000000">o</text>
<polyline fill="none" stroke="#000000" points="46,-23.5 46,-59.5 "/>
<text text-anchor="middle" x="57.5" y="-37.8" font-family="Times,serif" font-size="14.00" fill="#000000">o</text>
<polyline fill="none" stroke="#000000" points="69,-23.5 69,-59.5 "/>
<text text-anchor="middle" x="84" y="-37.8" font-family="Times,serif" font-size="14.00" fill="#000000">v1</text>
<polyline fill="none" stroke="#000000" points="99,-23.5 99,-59.5 "/>
<text text-anchor="middle" x="114" y="-37.8" font-family="Times,serif" font-size="14.00" fill="#000000">v2</text>
<polyline fill="none" stroke="#000000" points="129,-23.5 129,-59.5 "/>
<text text-anchor="middle" x="140.5" y="-37.8" font-family="Times,serif" font-size="14.00" fill="#000000">o</text>
<polyline fill="none" stroke="#000000" points="152,-23.5 152,-59.5 "/>
<text text-anchor="middle" x="167" y="-37.8" font-family="Times,serif" font-size="14.00" fill="#000000">v1</text>
<polyline fill="none" stroke="#000000" points="182,-23.5 182,-59.5 "/>
<text text-anchor="middle" x="193.5" y="-37.8" font-family="Times,serif" font-size="14.00" fill="#000000">o</text>
<polyline fill="none" stroke="#000000" points="205,-23.5 205,-59.5 "/>
<text text-anchor="middle" x="220" y="-37.8" font-family="Times,serif" font-size="14.00" fill="#000000">v2</text>
<polyline fill="none" stroke="#000000" points="235,-23.5 235,-59.5 "/>
<text text-anchor="middle" x="246.5" y="-37.8" font-family="Times,serif" font-size="14.00" fill="#000000">o</text>
<polyline fill="none" stroke="#000000" points="258,-23.5 258,-59.5 "/>
<text text-anchor="middle" x="269.5" y="-37.8" font-family="Times,serif" font-size="14.00" fill="#000000">o</text>
<polyline fill="none" stroke="#000000" points="281,-23.5 281,-59.5 "/>
<text text-anchor="middle" x="292.5" y="-37.8" font-family="Times,serif" font-size="14.00" fill="#000000">o</text>
<polyline fill="none" stroke="#000000" points="304,-23.5 304,-59.5 "/>
<text text-anchor="middle" x="315.5" y="-37.8" font-family="Times,serif" font-size="14.00" fill="#000000">o</text>
<polyline fill="none" stroke="#000000" points="327,-23.5 327,-59.5 "/>
<text text-anchor="middle" x="338.5" y="-37.8" font-family="Times,serif" font-size="14.00" fill="#000000">o</text>
<polyline fill="none" stroke="#000000" points="350,-23.5 350,-59.5 "/>
<text text-anchor="middle" x="364" y="-37.8" font-family="Times,serif" font-size="14.00" fill="#000000">...</text>
</g>
<!-- struct1&#45;&gt;struct2 -->
<g id="edge1" class="edge">
<title>struct1:k1&#45;&gt;struct2:v1</title>
<path fill="none" stroke="#000000" d="M61,-96.5C61,-72.9585 24.7421,-82.7273 13.978,-69.0748"/>
<polygon fill="#000000" stroke="#000000" points="17.3121,-68.0093 11,-59.5 10.6279,-70.0883 17.3121,-68.0093"/>
</g>
<!-- struct1&#45;&gt;struct2 -->
<g id="edge2" class="edge">
<title>struct1:k2&#45;&gt;struct2:v2</title>
<path fill="none" stroke="#000000" d="M21,-96.5C21,-68.3408 68.3769,-85.615 80.9614,-69.524"/>
<polygon fill="#000000" stroke="#000000" points="84.4484,-70.0853 84,-59.5 77.7495,-68.0546 84.4484,-70.0853"/>
</g>
<!-- struct1&#45;&gt;struct2 -->
<g id="edge3" class="edge">
<title>struct1:k3&#45;&gt;struct2:v2</title>
<path fill="none" stroke="#000000" d="M104,-96.5C104,-81.896 91.793,-78.9371 86.4524,-69.4279"/>
<polygon fill="#000000" stroke="#000000" points="89.7961,-68.3688 84,-59.5 83.0003,-70.0476 89.7961,-68.3688"/>
</g>
<!-- struct1&#45;&gt;struct2 -->
<g id="edge4" class="edge">
<title>struct1:k4&#45;&gt;struct2:v3</title>
<path fill="none" stroke="#000000" d="M147,-96.5C147,-81.896 159.207,-78.9371 164.5476,-69.4279"/>
<polygon fill="#000000" stroke="#000000" points="167.9997,-70.0476 167,-59.5 161.2039,-68.3688 167.9997,-70.0476"/>
</g>
</g>
</svg>
