<?xml version="1.0" encoding="UTF-8" standalone="no"?>
<!DOCTYPE svg PUBLIC "-//W3C//DTD SVG 1.1//EN"
 "http://www.w3.org/Graphics/SVG/1.1/DTD/svg11.dtd">
<!-- Generated by graphviz version 2.40.1 (20161225.0304)
 -->
<!-- Title: asd Pages: 1 -->
<svg width="646pt" height="500pt"
 viewBox="0.00 0.00 646.00 500.00" xmlns="http://www.w3.org/2000/svg" xmlns:xlink="http://www.w3.org/1999/xlink">
<g id="graph0" class="graph" transform="scale(1 1) rotate(0) translate(4 496)">
<title>asd</title>
<polygon fill="#f5deb3" stroke="transparent" points="-4,4 -4,-496 642,-496 642,4 -4,4"/>
<text text-anchor="middle" x="319" y="-7.8" font-family="Times,serif" font-size="14.00" fill="#000000">0/1编码世界对应现实的方式</text>
<g id="clust1" class="cluster">
<title>cluster_2</title>
<polygon fill="#f5deb3" stroke="#000000" points="8,-31 8,-484 538,-484 538,-31 8,-31"/>
<text text-anchor="middle" x="273" y="-468.8" font-family="Times,serif" font-size="14.00" fill="#000000">二进制世界</text>
</g>
<g id="clust9" class="cluster">
<title>cluster_1</title>
<polygon fill="#f5deb3" stroke="#000000" points="558,-31 558,-484 632,-484 632,-31 558,-31"/>
<text text-anchor="middle" x="595" y="-468.8" font-family="Times,serif" font-size="14.00" fill="#000000">现实世界</text>
</g>
<!-- 太极生两仪,两仪生四象,四象生八卦? -->
<g id="node1" class="node">
<title>太极生两仪,两仪生四象,四象生八卦?</title>
<text text-anchor="middle" x="138" y="-390.3" font-family="Times,serif" font-size="14.00" fill="#000000">太极生两仪,两仪生四象,四象生八卦?</text>
</g>
<!--   -->
<g id="node2" class="node">
<title> </title>
<text text-anchor="middle" x="138" y="-228.3" font-family="Times,serif" font-size="14.00" fill="#000000"> </text>
</g>
<!-- 0 -->
<g id="node3" class="node">
<title>0</title>
<text text-anchor="middle" x="323" y="-188.3" font-family="Times,serif" font-size="14.00" fill="#000000">0</text>
</g>
<!--  &#45;&gt;0 -->
<g id="edge1" class="edge">
<title> &#45;&gt;0</title>
<path fill="none" stroke="#000000" d="M165.2974,-226.0979C197.2237,-219.1949 250.2349,-207.733 285.8806,-200.0258"/>
<polygon fill="#000000" stroke="#000000" points="286.8575,-203.3955 295.892,-197.8612 285.3782,-196.5536 286.8575,-203.3955"/>
</g>
<!-- 1 -->
<g id="node4" class="node">
<title>1</title>
<text text-anchor="middle" x="323" y="-296.3" font-family="Times,serif" font-size="14.00" fill="#000000">1</text>
</g>
<!--  &#45;&gt;1 -->
<g id="edge2" class="edge">
<title> &#45;&gt;1</title>
<path fill="none" stroke="#000000" d="M165.2974,-242.0336C197.3607,-253.8191 250.6903,-273.4213 286.3386,-286.5245"/>
<polygon fill="#000000" stroke="#000000" points="285.2984,-289.871 295.892,-290.036 287.7135,-283.3008 285.2984,-289.871"/>
</g>
<!-- 00 -->
<g id="node5" class="node">
<title>00</title>
<text text-anchor="middle" x="413" y="-107.3" font-family="Times,serif" font-size="14.00" fill="#000000">00</text>
</g>
<!-- 0&#45;&gt;00 -->
<g id="edge3" class="edge">
<title>0&#45;&gt;00</title>
<path fill="none" stroke="#000000" d="M343.4224,-173.6198C355.8217,-162.4605 371.8121,-148.0691 385.3363,-135.8973"/>
<polygon fill="#000000" stroke="#000000" points="387.8769,-138.3196 392.9685,-129.0284 383.1941,-133.1165 387.8769,-138.3196"/>
</g>
<!-- 01 -->
<g id="node6" class="node">
<title>01</title>
<text text-anchor="middle" x="413" y="-188.3" font-family="Times,serif" font-size="14.00" fill="#000000">01</text>
</g>
<!-- 0&#45;&gt;01 -->
<g id="edge4" class="edge">
<title>0&#45;&gt;01</title>
<path fill="none" stroke="#000000" d="M350.003,-192C358.0277,-192 366.9665,-192 375.5309,-192"/>
<polygon fill="#000000" stroke="#000000" points="375.7051,-195.5001 385.705,-192 375.705,-188.5001 375.7051,-195.5001"/>
</g>
<!-- 10 -->
<g id="node7" class="node">
<title>10</title>
<text text-anchor="middle" x="413" y="-296.3" font-family="Times,serif" font-size="14.00" fill="#000000">10</text>
</g>
<!-- 1&#45;&gt;10 -->
<g id="edge5" class="edge">
<title>1&#45;&gt;10</title>
<path fill="none" stroke="#000000" d="M350.003,-300C358.0277,-300 366.9665,-300 375.5309,-300"/>
<polygon fill="#000000" stroke="#000000" points="375.7051,-303.5001 385.705,-300 375.705,-296.5001 375.7051,-303.5001"/>
</g>
<!-- 11 -->
<g id="node8" class="node">
<title>11</title>
<text text-anchor="middle" x="413" y="-377.3" font-family="Times,serif" font-size="14.00" fill="#000000">11</text>
</g>
<!-- 1&#45;&gt;11 -->
<g id="edge6" class="edge">
<title>1&#45;&gt;11</title>
<path fill="none" stroke="#000000" d="M343.4224,-318.3802C355.8217,-329.5395 371.8121,-343.9309 385.3363,-356.1027"/>
<polygon fill="#000000" stroke="#000000" points="383.1941,-358.8835 392.9685,-362.9716 387.8769,-353.6804 383.1941,-358.8835"/>
</g>
<!-- 000 -->
<g id="node9" class="node">
<title>000</title>
<text text-anchor="middle" x="503" y="-53.3" font-family="Times,serif" font-size="14.00" fill="#000000">000</text>
</g>
<!-- 00&#45;&gt;000 -->
<g id="edge7" class="edge">
<title>00&#45;&gt;000</title>
<path fill="none" stroke="#000000" d="M440.003,-94.7982C448.4686,-89.7188 457.9516,-84.029 466.9389,-78.6366"/>
<polygon fill="#000000" stroke="#000000" points="468.9308,-81.5232 475.705,-73.377 465.3293,-75.5208 468.9308,-81.5232"/>
</g>
<!-- 001 -->
<g id="node10" class="node">
<title>001</title>
<text text-anchor="middle" x="503" y="-107.3" font-family="Times,serif" font-size="14.00" fill="#000000">001</text>
</g>
<!-- 00&#45;&gt;001 -->
<g id="edge8" class="edge">
<title>00&#45;&gt;001</title>
<path fill="none" stroke="#000000" d="M440.003,-111C448.0277,-111 456.9665,-111 465.5309,-111"/>
<polygon fill="#000000" stroke="#000000" points="465.7051,-114.5001 475.705,-111 465.705,-107.5001 465.7051,-114.5001"/>
</g>
<!-- 010 -->
<g id="node11" class="node">
<title>010</title>
<text text-anchor="middle" x="503" y="-161.3" font-family="Times,serif" font-size="14.00" fill="#000000">010</text>
</g>
<!-- 01&#45;&gt;010 -->
<g id="edge9" class="edge">
<title>01&#45;&gt;010</title>
<path fill="none" stroke="#000000" d="M440.003,-183.8991C448.204,-181.4388 457.3599,-178.692 466.095,-176.0715"/>
<polygon fill="#000000" stroke="#000000" points="467.1325,-179.4144 475.705,-173.1885 465.121,-172.7096 467.1325,-179.4144"/>
</g>
<!-- 011 -->
<g id="node12" class="node">
<title>011</title>
<text text-anchor="middle" x="503" y="-215.3" font-family="Times,serif" font-size="14.00" fill="#000000">011</text>
</g>
<!-- 01&#45;&gt;011 -->
<g id="edge10" class="edge">
<title>01&#45;&gt;011</title>
<path fill="none" stroke="#000000" d="M440.003,-200.1009C448.204,-202.5612 457.3599,-205.308 466.095,-207.9285"/>
<polygon fill="#000000" stroke="#000000" points="465.121,-211.2904 475.705,-210.8115 467.1325,-204.5856 465.121,-211.2904"/>
</g>
<!-- 100 -->
<g id="node13" class="node">
<title>100</title>
<text text-anchor="middle" x="503" y="-269.3" font-family="Times,serif" font-size="14.00" fill="#000000">100</text>
</g>
<!-- 10&#45;&gt;100 -->
<g id="edge11" class="edge">
<title>10&#45;&gt;100</title>
<path fill="none" stroke="#000000" d="M440.003,-291.8991C448.204,-289.4388 457.3599,-286.692 466.095,-284.0715"/>
<polygon fill="#000000" stroke="#000000" points="467.1325,-287.4144 475.705,-281.1885 465.121,-280.7096 467.1325,-287.4144"/>
</g>
<!-- 101 -->
<g id="node14" class="node">
<title>101</title>
<text text-anchor="middle" x="503" y="-323.3" font-family="Times,serif" font-size="14.00" fill="#000000">101</text>
</g>
<!-- 10&#45;&gt;101 -->
<g id="edge12" class="edge">
<title>10&#45;&gt;101</title>
<path fill="none" stroke="#000000" d="M440.003,-308.1009C448.204,-310.5612 457.3599,-313.308 466.095,-315.9285"/>
<polygon fill="#000000" stroke="#000000" points="465.121,-319.2904 475.705,-318.8115 467.1325,-312.5856 465.121,-319.2904"/>
</g>
<!-- 110 -->
<g id="node15" class="node">
<title>110</title>
<text text-anchor="middle" x="503" y="-377.3" font-family="Times,serif" font-size="14.00" fill="#000000">110</text>
</g>
<!-- 11&#45;&gt;110 -->
<g id="edge13" class="edge">
<title>11&#45;&gt;110</title>
<path fill="none" stroke="#000000" d="M440.003,-381C448.0277,-381 456.9665,-381 465.5309,-381"/>
<polygon fill="#000000" stroke="#000000" points="465.7051,-384.5001 475.705,-381 465.705,-377.5001 465.7051,-384.5001"/>
</g>
<!-- 111 -->
<g id="node16" class="node">
<title>111</title>
<text text-anchor="middle" x="503" y="-431.3" font-family="Times,serif" font-size="14.00" fill="#000000">111</text>
</g>
<!-- 11&#45;&gt;111 -->
<g id="edge14" class="edge">
<title>11&#45;&gt;111</title>
<path fill="none" stroke="#000000" d="M440.003,-397.2018C448.4686,-402.2812 457.9516,-407.971 466.9389,-413.3634"/>
<polygon fill="#000000" stroke="#000000" points="465.3293,-416.4792 475.705,-418.623 468.9308,-410.4768 465.3293,-416.4792"/>
</g>
<!-- 赵 -->
<g id="node17" class="node">
<title>赵</title>
<text text-anchor="middle" x="595" y="-53.3" font-family="Times,serif" font-size="14.00" fill="#000000">赵</text>
</g>
<!-- 000&#45;&gt;赵 -->
<g id="edge15" class="edge">
<title>000&#45;&gt;赵</title>
<path fill="none" stroke="#000000" d="M530.1054,-57C538.7317,-57 548.431,-57 557.6495,-57"/>
<polygon fill="#000000" stroke="#000000" points="557.7704,-60.5001 567.7704,-57 557.7703,-53.5001 557.7704,-60.5001"/>
</g>
<!-- 钱 -->
<g id="node18" class="node">
<title>钱</title>
<text text-anchor="middle" x="595" y="-107.3" font-family="Times,serif" font-size="14.00" fill="#000000">钱</text>
</g>
<!-- 001&#45;&gt;钱 -->
<g id="edge16" class="edge">
<title>001&#45;&gt;钱</title>
<path fill="none" stroke="#000000" d="M530.1054,-111C538.7317,-111 548.431,-111 557.6495,-111"/>
<polygon fill="#000000" stroke="#000000" points="557.7704,-114.5001 567.7704,-111 557.7703,-107.5001 557.7704,-114.5001"/>
</g>
<!-- 孙 -->
<g id="node19" class="node">
<title>孙</title>
<text text-anchor="middle" x="595" y="-161.3" font-family="Times,serif" font-size="14.00" fill="#000000">孙</text>
</g>
<!-- 010&#45;&gt;孙 -->
<g id="edge17" class="edge">
<title>010&#45;&gt;孙</title>
<path fill="none" stroke="#000000" d="M530.1054,-165C538.7317,-165 548.431,-165 557.6495,-165"/>
<polygon fill="#000000" stroke="#000000" points="557.7704,-168.5001 567.7704,-165 557.7703,-161.5001 557.7704,-168.5001"/>
</g>
<!-- 李 -->
<g id="node20" class="node">
<title>李</title>
<text text-anchor="middle" x="595" y="-215.3" font-family="Times,serif" font-size="14.00" fill="#000000">李</text>
</g>
<!-- 011&#45;&gt;李 -->
<g id="edge18" class="edge">
<title>011&#45;&gt;李</title>
<path fill="none" stroke="#000000" d="M530.1054,-219C538.7317,-219 548.431,-219 557.6495,-219"/>
<polygon fill="#000000" stroke="#000000" points="557.7704,-222.5001 567.7704,-219 557.7703,-215.5001 557.7704,-222.5001"/>
</g>
<!-- 周 -->
<g id="node21" class="node">
<title>周</title>
<text text-anchor="middle" x="595" y="-269.3" font-family="Times,serif" font-size="14.00" fill="#000000">周</text>
</g>
<!-- 100&#45;&gt;周 -->
<g id="edge19" class="edge">
<title>100&#45;&gt;周</title>
<path fill="none" stroke="#000000" d="M530.1054,-273C538.7317,-273 548.431,-273 557.6495,-273"/>
<polygon fill="#000000" stroke="#000000" points="557.7704,-276.5001 567.7704,-273 557.7703,-269.5001 557.7704,-276.5001"/>
</g>
<!-- 吴 -->
<g id="node22" class="node">
<title>吴</title>
<text text-anchor="middle" x="595" y="-323.3" font-family="Times,serif" font-size="14.00" fill="#000000">吴</text>
</g>
<!-- 101&#45;&gt;吴 -->
<g id="edge20" class="edge">
<title>101&#45;&gt;吴</title>
<path fill="none" stroke="#000000" d="M530.1054,-327C538.7317,-327 548.431,-327 557.6495,-327"/>
<polygon fill="#000000" stroke="#000000" points="557.7704,-330.5001 567.7704,-327 557.7703,-323.5001 557.7704,-330.5001"/>
</g>
<!-- 郑 -->
<g id="node23" class="node">
<title>郑</title>
<text text-anchor="middle" x="595" y="-377.3" font-family="Times,serif" font-size="14.00" fill="#000000">郑</text>
</g>
<!-- 110&#45;&gt;郑 -->
<g id="edge21" class="edge">
<title>110&#45;&gt;郑</title>
<path fill="none" stroke="#000000" d="M530.1054,-381C538.7317,-381 548.431,-381 557.6495,-381"/>
<polygon fill="#000000" stroke="#000000" points="557.7704,-384.5001 567.7704,-381 557.7703,-377.5001 557.7704,-384.5001"/>
</g>
<!-- ... -->
<g id="node24" class="node">
<title>...</title>
<text text-anchor="middle" x="595" y="-431.3" font-family="Times,serif" font-size="14.00" fill="#000000">...</text>
</g>
<!-- 111&#45;&gt;... -->
<g id="edge22" class="edge">
<title>111&#45;&gt;...</title>
<path fill="none" stroke="#000000" d="M530.1054,-435C538.7317,-435 548.431,-435 557.6495,-435"/>
<polygon fill="#000000" stroke="#000000" points="557.7704,-438.5001 567.7704,-435 557.7703,-431.5001 557.7704,-438.5001"/>
</g>
</g>
</svg>
